<mxfile host="app.diagrams.net" modified="2024-06-11T09:45:22.604Z" agent="Mozilla/5.0 (Macintosh; Intel Mac OS X 10_15_7) AppleWebKit/537.36 (KHTML, like Gecko) Chrome/125.0.0.0 Safari/537.36" etag="fBnWOdK23hDorMxpNCOm" version="24.4.15" type="device">
  <diagram name="Page-1" id="C5i3k6Qt_-fVxZLNJBkj">
    <mxGraphModel dx="869" dy="497" grid="1" gridSize="10" guides="1" tooltips="1" connect="1" arrows="1" fold="1" page="1" pageScale="1" pageWidth="827" pageHeight="1169" math="0" shadow="0">
      <root>
        <mxCell id="0" />
        <mxCell id="1" parent="0" />
        <mxCell id="LI5HVq6Fow6DMxo9XUyr-8" style="edgeStyle=orthogonalEdgeStyle;rounded=0;orthogonalLoop=1;jettySize=auto;html=1;exitX=0.5;exitY=0.5;exitDx=0;exitDy=0;exitPerimeter=0;entryX=0;entryY=0.5;entryDx=0;entryDy=0;" edge="1" parent="1" source="LI5HVq6Fow6DMxo9XUyr-1" target="LI5HVq6Fow6DMxo9XUyr-5">
          <mxGeometry relative="1" as="geometry" />
        </mxCell>
        <mxCell id="LI5HVq6Fow6DMxo9XUyr-9" value="Enter car details" style="edgeLabel;html=1;align=center;verticalAlign=middle;resizable=0;points=[];" vertex="1" connectable="0" parent="LI5HVq6Fow6DMxo9XUyr-8">
          <mxGeometry x="0.2163" y="-1" relative="1" as="geometry">
            <mxPoint as="offset" />
          </mxGeometry>
        </mxCell>
        <mxCell id="LI5HVq6Fow6DMxo9XUyr-1" value="User" style="shape=umlActor;verticalLabelPosition=bottom;verticalAlign=top;html=1;outlineConnect=0;" vertex="1" parent="1">
          <mxGeometry x="140" y="330" width="30" height="60" as="geometry" />
        </mxCell>
        <mxCell id="LI5HVq6Fow6DMxo9XUyr-10" style="edgeStyle=orthogonalEdgeStyle;rounded=0;orthogonalLoop=1;jettySize=auto;html=1;exitX=1;exitY=0.25;exitDx=0;exitDy=0;entryX=0;entryY=0.25;entryDx=0;entryDy=0;" edge="1" parent="1" source="LI5HVq6Fow6DMxo9XUyr-5" target="LI5HVq6Fow6DMxo9XUyr-7">
          <mxGeometry relative="1" as="geometry" />
        </mxCell>
        <mxCell id="LI5HVq6Fow6DMxo9XUyr-11" value="Pass sample" style="edgeLabel;html=1;align=center;verticalAlign=middle;resizable=0;points=[];" vertex="1" connectable="0" parent="LI5HVq6Fow6DMxo9XUyr-10">
          <mxGeometry x="-0.0588" y="2" relative="1" as="geometry">
            <mxPoint as="offset" />
          </mxGeometry>
        </mxCell>
        <mxCell id="LI5HVq6Fow6DMxo9XUyr-15" style="edgeStyle=orthogonalEdgeStyle;rounded=0;orthogonalLoop=1;jettySize=auto;html=1;exitX=1;exitY=1;exitDx=0;exitDy=0;entryX=0;entryY=0.5;entryDx=0;entryDy=0;" edge="1" parent="1" source="LI5HVq6Fow6DMxo9XUyr-5" target="LI5HVq6Fow6DMxo9XUyr-14">
          <mxGeometry relative="1" as="geometry" />
        </mxCell>
        <mxCell id="LI5HVq6Fow6DMxo9XUyr-16" value="Redirects" style="edgeLabel;html=1;align=center;verticalAlign=middle;resizable=0;points=[];" vertex="1" connectable="0" parent="LI5HVq6Fow6DMxo9XUyr-15">
          <mxGeometry x="0.207" y="1" relative="1" as="geometry">
            <mxPoint as="offset" />
          </mxGeometry>
        </mxCell>
        <mxCell id="LI5HVq6Fow6DMxo9XUyr-5" value="UI&lt;div&gt;(Dash)&lt;/div&gt;" style="whiteSpace=wrap;html=1;aspect=fixed;" vertex="1" parent="1">
          <mxGeometry x="310" y="320" width="80" height="80" as="geometry" />
        </mxCell>
        <mxCell id="LI5HVq6Fow6DMxo9XUyr-12" style="edgeStyle=orthogonalEdgeStyle;rounded=0;orthogonalLoop=1;jettySize=auto;html=1;exitX=0;exitY=0.5;exitDx=0;exitDy=0;entryX=1;entryY=0.5;entryDx=0;entryDy=0;" edge="1" parent="1" source="LI5HVq6Fow6DMxo9XUyr-7" target="LI5HVq6Fow6DMxo9XUyr-5">
          <mxGeometry relative="1" as="geometry" />
        </mxCell>
        <mxCell id="LI5HVq6Fow6DMxo9XUyr-13" value="Return price" style="edgeLabel;html=1;align=center;verticalAlign=middle;resizable=0;points=[];" vertex="1" connectable="0" parent="LI5HVq6Fow6DMxo9XUyr-12">
          <mxGeometry x="-0.1715" y="1" relative="1" as="geometry">
            <mxPoint as="offset" />
          </mxGeometry>
        </mxCell>
        <mxCell id="LI5HVq6Fow6DMxo9XUyr-7" value="XGboost regressor" style="whiteSpace=wrap;html=1;aspect=fixed;" vertex="1" parent="1">
          <mxGeometry x="520" y="320" width="80" height="80" as="geometry" />
        </mxCell>
        <mxCell id="LI5HVq6Fow6DMxo9XUyr-14" value="autoscoot24.com" style="whiteSpace=wrap;html=1;aspect=fixed;fontSize=9;" vertex="1" parent="1">
          <mxGeometry x="520" y="430" width="80" height="80" as="geometry" />
        </mxCell>
      </root>
    </mxGraphModel>
  </diagram>
</mxfile>
